<svg width="125" height="126" viewBox="0 0 125 126" fill="none" xmlns="http://www.w3.org/2000/svg">
<path d="M121.93 57.3856C109.032 52.0747 96.1505 46.72 83.2625 41.3821C79.838 39.9649 77.4477 41.6655 77.4477 45.5086C77.4445 62.5042 77.4477 79.4998 77.4477 96.4987V97.7202H84.9893V96.4481C84.9893 92.8209 85.0153 89.1937 84.9731 85.5665C84.9633 84.7061 85.1877 84.2438 85.978 83.8389C97.8448 77.7655 109.682 71.6346 121.549 65.5612C123.006 64.8155 124.281 63.9754 125 62.4165V60.392C124.392 58.9344 123.383 57.9829 121.93 57.3856ZM87.7634 73.5343V52.9891L110.125 60.7834L87.7634 73.5343Z" fill="white"/>
<path d="M46.3391 24.1703C46.2773 29.0999 45.048 33.6787 42.6252 37.8964C36.7812 48.0661 30.9209 58.2257 25.0541 68.3785C23.8801 70.4098 22.1695 70.3828 20.9988 68.3245C15.2621 58.2358 9.43106 48.2044 3.84071 38.028C-1.10897 29.0156 -1.51548 19.8109 4.03584 10.8761C9.22293 2.52847 19.054 -1.43954 28.2639 0.77391C37.6625 3.0346 44.661 10.8593 46.0171 20.6477C46.1797 21.8151 46.235 22.9961 46.3391 24.1703ZM22.8947 36.9752C29.3794 37.1001 34.7811 31.6542 34.947 24.8316C35.1063 18.1846 29.8119 12.4384 23.402 12.3034C16.6865 12.1617 11.2132 17.5671 11.1156 24.4301C11.0181 31.2594 16.2637 36.847 22.8947 36.9752Z" fill="white"/>
<path d="M29.5551 75.8222C31.0478 73.2275 32.4006 70.8386 33.812 68.4868C33.9747 68.2135 34.4657 68.0178 34.8039 68.0178C39.7211 67.9942 44.6415 67.9031 49.5554 68.0414C57.2206 68.2574 63.1654 74.8504 63.0776 82.8472C62.9931 90.6381 56.8791 97.0557 49.2822 97.1097C37.9845 97.1906 26.6867 97.1232 15.3857 97.14C11.6361 97.1468 8.69291 99.4648 7.91891 102.95C6.86523 107.694 10.1921 112.179 14.8849 112.249C18.8654 112.31 22.8493 112.263 26.8331 112.263C38.8235 112.263 50.8107 112.263 62.8012 112.263C63.276 112.263 63.754 112.263 64.1248 112.263C64.2581 114.908 64.3849 117.412 64.5183 120.03C64.3036 120.04 63.9199 120.081 63.5362 120.081C47.4025 120.084 31.2657 120.094 15.132 120.077C7.25548 120.071 1.02773 114.102 0.211458 105.849C-0.523515 98.4087 4.70259 91.2589 12.0978 89.6663C13.2816 89.4132 14.5174 89.3424 15.7304 89.339C26.6217 89.3154 37.5162 89.3053 48.4074 89.339C50.9018 89.3458 52.9799 88.5663 54.4043 86.3967C55.8222 84.2407 55.9848 81.8923 54.8563 79.5607C53.7051 77.182 51.7636 75.8661 49.1912 75.8424C43.1781 75.7851 37.1617 75.8188 31.1453 75.8188C30.6998 75.8222 30.2543 75.8222 29.5551 75.8222Z" fill="white"/>
<path d="M71.7413 115.232C71.7673 109.752 76.0113 105.389 81.3025 105.406C86.5644 105.423 90.8408 109.887 90.8051 115.32C90.7693 120.759 86.457 125.186 81.2147 125.169C75.9658 125.152 71.7153 120.695 71.7413 115.232Z" fill="white"/>
<path d="M23.0076 20.1147C25.4565 20.1046 27.4435 22.1595 27.4175 24.6765C27.3915 27.1262 25.4077 29.1743 23.0467 29.1878C20.6271 29.2013 18.6401 27.1194 18.6563 24.5922C18.6726 22.1021 20.5946 20.1248 23.0076 20.1147Z" fill="white"/>
</svg>
