<svg width="125" height="125" viewBox="0 0 125 125" fill="none" xmlns="http://www.w3.org/2000/svg">
<path d="M121.23 96.199C125.327 96.3491 124.971 96.4114 124.99 100.253C124.997 102.128 125.012 104.007 124.982 105.882C124.961 107.409 124.521 107.833 122.998 107.837C119.432 107.852 115.866 107.841 112.63 107.841C111.48 110.137 110.433 112.232 109.375 114.352C109.481 114.359 109.858 114.418 110.235 114.418C114.398 114.425 118.565 114.418 122.727 114.425C124.558 114.429 124.979 114.85 124.986 116.699C124.997 118.805 125.008 120.911 124.982 123.016C124.961 124.533 124.514 124.946 122.987 124.994C122.669 125.005 122.346 124.998 122.028 124.998C82.3523 124.998 42.6766 124.998 3.0009 124.998C2.59085 124.998 2.17714 124.994 1.7671 124.994C0.573567 124.987 0.0134128 124.353 0.0097517 123.192C0.00609057 120.951 -0.0122115 118.706 0.0134164 116.465C0.0280609 114.905 0.511331 114.44 2.0966 114.433C6.16778 114.422 10.2426 114.429 14.3138 114.429C14.8154 114.429 15.3133 114.429 15.6757 114.429C14.6067 112.319 13.5376 110.203 12.3441 107.852C9.24679 107.852 5.77604 107.855 2.30528 107.852C0.3539 107.848 0.0134148 107.504 0.00609258 105.515C-0.00122968 103.318 0.00243145 101.121 0.00609258 98.9236C0.00975371 96.6018 0.298982 96.3125 2.59085 96.2942C2.90937 96.2905 3.22789 96.2942 3.76608 96.2942C3.76608 95.7192 3.76608 95.1919 3.76608 94.6646C3.76608 79.9247 3.76608 65.1847 3.76608 50.4485C3.76608 48.3208 4.12486 47.9546 6.21171 47.9546C31.565 47.9546 56.9147 47.9327 82.2681 47.962C100.998 47.9839 116.221 60.0908 120.267 78.2511C120.886 81.0343 121.054 83.942 121.201 86.802C121.351 89.8928 121.23 93.002 121.23 96.199ZM45.7336 87.9007C70.0033 87.9007 94.0862 87.9007 118.092 87.9007C118.092 86.0806 118.092 84.3668 118.092 82.5614C117.378 82.5614 116.833 82.5614 116.287 82.5614C107.318 82.5614 98.3514 82.543 89.3816 82.5687C86.5333 82.576 84.3659 81.3565 82.7184 79.1263C81.3491 77.2733 80.6169 75.1676 80.5949 72.8641C80.5546 68.9274 80.5693 64.9907 80.562 61.0576C80.562 60.5705 80.562 60.0835 80.562 59.5525C55.875 59.5525 31.3747 59.5525 6.84875 59.5525C6.84875 69.0592 6.84875 78.4928 6.84875 87.93C11.9817 87.93 16.9974 87.93 22.1742 87.93C22.1742 87.3697 22.1742 86.8826 22.1742 86.3919C22.1742 79.8917 22.1706 73.3915 22.1779 66.8949C22.1816 65.2873 22.6429 64.7709 24.1659 64.7673C30.7083 64.7526 37.2544 64.749 43.7969 64.7673C45.2577 64.7709 45.7263 65.2873 45.73 66.7997C45.7446 70.5973 45.7336 74.3986 45.7336 78.1961C45.7336 81.3968 45.7336 84.5938 45.7336 87.9007ZM117.484 79.6427C117.484 79.3131 117.499 79.1776 117.481 79.0494C117.444 78.7784 117.411 78.5038 117.345 78.2364C115.61 71.1063 112.051 65.0419 106.607 60.1201C106.164 59.7209 105.395 59.5122 104.777 59.5085C98.1464 59.4646 91.5124 59.4792 84.8821 59.4865C84.4428 59.4865 84.0034 59.5341 83.4506 59.5671C83.4506 61.1748 83.4323 62.6762 83.4543 64.1777C83.5019 67.4223 83.3737 70.6852 83.6813 73.9078C84.0437 77.6944 86.4601 79.6427 90.22 79.6427C98.7724 79.6463 107.325 79.6427 115.881 79.6427C116.371 79.6427 116.869 79.6427 117.484 79.6427ZM42.6693 96.2356C42.6693 86.6592 42.6693 77.222 42.6693 67.8031C36.7822 67.8031 31.0012 67.8031 25.2386 67.8031C25.2386 77.3356 25.2386 86.7728 25.2386 96.2356C31.0854 96.2356 36.8334 96.2356 42.6693 96.2356ZM118.209 90.9878C94.0606 90.9878 69.9703 90.9878 45.8178 90.9878C45.8178 92.7603 45.8178 94.4668 45.8178 96.199C69.9886 96.199 94.0752 96.199 118.209 96.199C118.209 94.4338 118.209 92.7529 118.209 90.9878ZM90.0626 107.892C71.7789 107.892 53.2097 107.892 34.9443 107.892C33.802 110.166 32.7329 112.287 31.7188 114.308C52.1845 114.308 72.859 114.308 93.2515 114.308C92.219 112.235 91.1793 110.141 90.0626 107.892ZM22.1193 90.9951C16.9132 90.9951 11.8718 90.9951 6.8341 90.9951C6.8341 92.7969 6.8341 94.5034 6.8341 96.199C11.9817 96.199 17.023 96.199 22.1193 96.199C22.1193 94.4412 22.1193 92.7676 22.1193 90.9951ZM31.3893 107.951C26.1649 107.951 21.0356 107.951 15.8881 107.951C16.6825 111.99 20.0069 114.568 24.111 114.414C27.7318 114.282 31.0195 111.382 31.3893 107.951ZM93.6249 107.91C93.8189 111.221 97.2055 114.26 100.83 114.414C104.993 114.59 108.544 111.814 109.075 107.91C103.92 107.91 98.7724 107.91 93.6249 107.91Z" fill="white"/>
<path d="M84.1216 29.4424C84.5463 28.8858 84.8794 28.4683 85.1943 28.0399C89.573 22.1182 93.948 16.1966 98.3304 10.275C99.5972 8.5611 100.454 8.55744 101.677 10.2676C109.204 20.7999 116.731 31.3284 124.233 41.879C124.581 42.3697 124.888 43.0289 124.863 43.5965C124.848 43.992 124.237 44.6805 123.892 44.6805C123.31 44.6768 122.527 44.3912 122.186 43.9517C120.488 41.7398 118.946 39.407 117.247 37.1951C116.794 36.6019 116.047 36.0892 115.336 35.8658C112.722 35.0528 110.057 34.4009 107.425 33.6429C106.722 33.4415 106.253 33.5037 105.792 34.1336C105.118 35.0564 104.331 35.8914 103.602 36.774C102.969 37.5357 102.197 37.9166 101.351 37.2464C100.425 36.5103 100.699 35.6607 101.38 34.8624C102.42 33.6429 103.478 32.438 104.459 31.1746C105.129 30.314 105.909 30.1822 106.886 30.4568C109.076 31.0757 111.273 31.6653 113.861 32.3721C111.675 29.3069 109.706 26.5494 107.663 23.6856C106.011 24.44 104.408 25.1797 102.797 25.9048C101.358 26.5494 100.791 26.3223 100.11 24.8611C99.7839 24.158 99.4654 23.4549 99.07 22.587C97.6897 23.2645 96.3607 23.92 95.0281 24.5755C94.618 24.7769 94.2226 25.0296 93.7906 25.1651C90.1222 26.3187 87.7827 28.992 85.8679 32.1231C85.6446 32.4857 85.6519 33.0276 85.6666 33.4854C85.6739 33.7857 85.8862 34.0787 85.9997 34.379C86.3365 35.2762 86.3878 36.1771 85.3663 36.5945C84.3156 37.023 83.6529 36.4554 83.2649 35.4483C81.7492 31.5262 80.2151 27.615 78.6811 23.7039C78.1356 22.3087 77.5755 20.9207 77.03 19.5511C76.0231 20.5179 75.0346 21.4004 74.145 22.3709C73.9363 22.598 73.9253 23.2095 74.0754 23.5171C74.5331 24.4583 75.1115 25.3445 75.6534 26.2454C76.1732 27.1097 76.122 27.886 75.3275 28.5672C73.7972 29.8782 72.2741 31.1929 70.7511 32.5076C69.9823 33.1705 69.1549 33.3243 68.4739 32.4783C67.7929 31.636 68.148 30.8633 68.9059 30.2188C70.158 29.1568 71.3991 28.0801 72.6732 26.9852C72.0764 25.9634 71.5785 24.982 70.9635 24.0848C70.136 22.8836 70.3191 21.9315 71.3552 20.9537C72.5853 19.7928 73.7166 18.5294 74.8882 17.3062C75.8584 16.2955 75.8547 16.2955 75.0932 14.8563C73.5446 15.4239 71.9739 15.9988 70.4033 16.5775C68.3091 17.3465 68.2359 17.3245 66.9362 15.4715C66.8081 15.2884 66.6506 15.1236 66.4456 14.8746C62.3305 17.0023 58.23 19.108 54.1515 21.2503C53.7232 21.4774 53.39 21.8985 53.0386 22.2574C46.0165 29.3399 38.9945 36.4297 31.9761 43.5159C31.6868 43.8089 31.4013 44.1092 31.0974 44.3838C30.4677 44.9588 29.7647 45.0394 29.1314 44.4571C28.4467 43.8345 28.4577 43.0655 29.0398 42.377C29.5707 41.7508 30.1711 41.1795 30.7606 40.6045C33.5833 37.8616 36.4097 35.1297 39.3203 32.3099C37.2664 29.5303 35.3809 26.9742 33.3929 24.2825C32.6936 25.1981 32.1042 25.9927 31.4928 26.7691C30.6105 27.8897 29.816 28.0728 28.8714 27.0804C27.7841 25.9415 26.715 25.751 25.3604 26.4468C24.8808 26.6959 24.3206 26.7874 23.8008 26.9632C22.8562 27.2855 22.1276 27.0547 21.5345 26.2234C20.5826 24.8904 19.5831 23.5977 18.4335 22.0633C18.2065 22.6236 17.9649 22.9642 17.9466 23.3121C17.8661 25.004 17.8111 26.6995 17.8441 28.3878C17.8514 28.7064 18.2358 29.1714 18.5544 29.2996C19.4404 29.6585 20.3776 29.8892 21.3002 30.1456C22.3217 30.4312 22.8525 31.0245 22.7171 32.1414C22.4901 34.0494 22.318 35.961 22.08 37.8689C21.9629 38.7955 21.432 39.4473 20.4325 39.3155C19.466 39.1873 19.0523 38.4915 19.1548 37.5247C19.3195 35.983 19.5026 34.4412 19.693 32.7603C18.7118 32.46 17.7672 32.167 16.8226 31.8777C15.0067 31.3174 14.8566 31.105 14.9005 29.1421C14.9115 28.6478 14.9005 28.1534 14.9005 27.2928C14.4429 27.8567 14.1647 28.1717 13.923 28.5086C10.3534 33.4927 6.79114 38.4769 3.22519 43.461C3.01285 43.7576 2.81149 44.0726 2.55887 44.3326C1.96211 44.9515 1.16032 45.0943 0.629453 44.4644C0.274323 44.0433 0.274327 43.2559 0.277988 42.6334C0.281649 42.3294 0.655084 42.0291 0.86743 41.7325C8.31051 31.3101 15.7573 20.8914 23.204 10.4691C24.6025 8.50983 25.3677 8.49884 26.7919 10.4251C31.3061 16.5298 35.8166 22.6382 40.3308 28.7466C40.6017 29.1128 40.8873 29.4644 41.5609 30.3287C41.8648 29.7684 42.0186 29.2374 42.3627 28.8931C51.4936 19.6426 60.6427 10.4141 69.7882 1.18195C69.9164 1.05011 70.0408 0.918279 70.1727 0.790105C71.4357 -0.425715 72.4462 -0.246271 73.0906 1.38337C74.8919 5.92804 76.6565 10.4874 78.4322 15.0394C80.1126 19.3387 81.7894 23.6343 83.4699 27.9336C83.6346 28.3731 83.8433 28.8089 84.1216 29.4424Z" fill="white"/>
<path d="M63.0442 82.0633C60.302 82.0633 57.5598 82.0743 54.8213 82.0596C53.1738 82.0523 52.7381 81.6604 52.7344 80.071C52.7161 75.182 52.7161 70.2893 52.7344 65.4003C52.7381 63.8256 53.2177 63.3605 54.792 63.3568C60.3679 63.3458 65.9401 63.3458 71.516 63.3568C73.0244 63.3605 73.5077 63.8329 73.5114 65.3051C73.5223 70.2417 73.5223 75.1784 73.5114 80.1113C73.5077 81.6568 73.1086 82.0486 71.5453 82.056C68.7116 82.0743 65.8779 82.0596 63.0442 82.0633Z" fill="white"/>
<path d="M105.598 75.1198C105.195 75.5592 104.91 76.1488 104.496 76.2587C104.017 76.3869 103.277 76.266 102.911 75.9511C101.739 74.944 100.685 73.7978 99.5903 72.6991C98.1075 71.216 96.6284 69.7291 95.142 68.2496C94.4025 67.5136 94.073 66.6896 94.937 65.8839C95.7388 65.1369 96.5186 65.4848 97.2105 66.1769C99.7221 68.6964 102.248 71.2013 104.742 73.7355C105.067 74.0651 105.247 74.5448 105.598 75.1198Z" fill="white"/>
<path d="M108.387 68.8761C108.102 69.213 107.838 69.7879 107.414 69.9564C106.993 70.1212 106.231 70.0699 105.923 69.7843C104.247 68.2315 102.607 66.6275 101.094 64.9173C100.791 64.5767 100.856 63.4781 101.179 63.1339C101.508 62.7823 102.636 62.6322 102.951 62.9141C104.723 64.4925 106.359 66.221 108.021 67.9202C108.197 68.0997 108.219 68.422 108.387 68.8761Z" fill="white"/>
</svg>
