<svg width="125" height="125" viewBox="0 0 125 125" fill="none" xmlns="http://www.w3.org/2000/svg">
<path d="M5.25868 72.8873C5.25868 88.6017 5.25868 104.111 5.25868 119.715C13.9388 119.715 22.5517 119.715 31.2586 119.715C31.2586 119.094 31.2586 118.553 31.2586 118.012C31.2586 92.0333 31.2586 66.0576 31.2586 40.0784C31.2586 37.2344 32.0007 36.4789 34.8046 36.4789C53.2695 36.4789 71.7378 36.4789 90.2027 36.4789C93.0031 36.4789 93.7486 37.2377 93.7486 40.0818C93.7486 66.0609 93.7486 92.0367 93.7486 118.016C93.7486 118.556 93.7486 119.097 93.7486 119.722C102.429 119.722 111.011 119.722 119.705 119.722C119.705 104.168 119.705 88.6285 119.705 72.9511C119.255 72.9309 118.812 72.8906 118.368 72.8906C113.207 72.8873 108.043 72.8873 102.882 72.8873C102.546 72.8873 102.21 72.894 101.875 72.8839C100.071 72.8403 98.9801 71.8363 99.007 70.2581C99.0339 68.7337 100.108 67.7566 101.851 67.7465C105.209 67.7297 108.567 67.7398 111.925 67.7398C114.567 67.7398 117.213 67.7129 119.856 67.7499C122.777 67.7935 124.977 69.9324 124.98 72.847C125.007 88.5009 125.007 104.155 124.983 119.809C124.98 122.791 122.791 124.899 119.789 124.99C119.453 125 119.117 124.997 118.781 124.997C81.2607 124.997 43.7398 124.997 6.22238 124.99C5.47022 124.99 4.69455 125.007 3.96926 124.842C1.62882 124.312 0.0371916 122.29 0.0204022 119.806C-0.0131764 115.316 0.00697077 110.823 0.00697077 106.334C0.00697077 95.4213 0.00361291 84.5119 0.00697077 73.5991C0.00697077 69.7142 1.99819 67.7398 5.90339 67.7398C11.5278 67.7364 17.1522 67.7331 22.7733 67.7465C23.3106 67.7465 23.8814 67.7599 24.3817 67.9312C25.5268 68.3241 26.1715 69.553 25.97 70.7652C25.7551 72.0411 24.7511 72.8705 23.2501 72.8738C17.7936 72.894 12.3371 72.8839 6.88388 72.8839C6.38692 72.8873 5.88996 72.8873 5.25868 72.8873ZM49.4717 119.752C49.4717 119.147 49.4717 118.647 49.4717 118.15C49.4717 109.464 49.4717 100.78 49.4717 92.0938C49.4717 89.4143 50.328 88.5513 53.0076 88.548C59.3439 88.5412 65.6802 88.5412 72.0165 88.548C74.6927 88.5513 75.5523 89.4176 75.5523 92.0938C75.5556 100.821 75.5523 109.548 75.5523 118.278C75.5523 118.761 75.5523 119.245 75.5523 119.755C79.9679 119.755 84.1854 119.755 88.4834 119.755C88.4834 93.7256 88.4834 67.7734 88.4834 41.7405C71.1468 41.7405 53.884 41.7405 36.5473 41.7405C36.5473 67.77 36.5473 93.7223 36.5473 119.755C40.8319 119.752 45.0494 119.752 49.4717 119.752ZM54.7503 93.7794C54.7503 102.473 54.7503 111.062 54.7503 119.728C59.9248 119.728 65.0623 119.728 70.2133 119.728C70.2133 111.042 70.2133 102.429 70.2133 93.7794C65.0455 93.7794 59.9751 93.7794 54.7503 93.7794Z" fill="white"/>
<path d="M62.4062 0C64.5888 0.0235044 66.167 0.980471 67.1576 2.83732C67.9265 4.27781 68.5578 5.79553 69.3671 7.20915C69.629 7.66581 70.2233 8.10568 70.7371 8.21648C72.1675 8.52876 73.6315 8.66978 75.0855 8.86789C77.2983 9.16674 78.9706 10.2144 79.7059 12.3936C80.4514 14.603 79.857 16.5136 78.2016 18.1219C77.117 19.1729 75.9854 20.1802 74.9814 21.3051C74.6288 21.698 74.4005 22.4031 74.4576 22.9236C74.6322 24.5017 74.9915 26.0597 75.2467 27.6312C75.5858 29.713 74.9545 31.4691 73.2689 32.7451C71.59 34.0143 69.7196 34.1923 67.8191 33.2756C66.3114 32.5503 64.8272 31.7679 63.3665 30.9453C62.7453 30.5961 62.2584 30.6062 61.644 30.9554C60.2975 31.7209 58.9106 32.416 57.5339 33.1278C55.5763 34.1385 53.6354 34.1285 51.8491 32.8055C50.0324 31.459 49.371 29.6055 49.8142 27.3659C49.9687 26.5869 49.9519 25.7508 50.2238 25.0188C51.0566 22.7825 50.4354 21.1137 48.5315 19.7471C47.7558 19.1931 47.1145 18.4376 46.463 17.7291C43.6491 14.6869 45.083 9.9726 49.1292 9.07608C50.8014 8.70672 52.5173 8.52876 54.2197 8.30379C54.9484 8.20977 55.4118 7.91764 55.7274 7.21251C56.3956 5.72501 57.131 4.26438 57.8932 2.82053C58.8536 1.00062 60.3982 0.0671556 62.4062 0ZM50.4522 14.1127C52.0438 15.7715 53.4978 17.3295 55.0088 18.8338C55.8819 19.7034 56.2546 20.647 56.0229 21.8894C55.6199 24.0451 55.2976 26.2175 54.9081 28.5848C56.8926 27.5573 58.7125 26.7044 60.4385 25.6904C61.8622 24.8509 63.1281 24.8408 64.5552 25.6803C66.2946 26.7011 68.1246 27.5707 70.0823 28.5915C69.7028 26.2511 69.4275 24.1357 68.991 22.0505C68.6955 20.6369 69.1757 19.6497 70.1427 18.6894C71.6235 17.2254 73.0171 15.6741 74.4979 14.1094C73.1144 13.8945 71.6773 13.4748 70.2468 13.4848C67.2113 13.505 65.4518 12.0712 64.4948 9.27754C64.0348 7.93779 63.2591 6.70884 62.5204 5.22135C61.4257 7.40726 60.4452 9.29769 59.5285 11.2217C58.9711 12.3868 58.1417 13.0181 56.8355 13.1726C54.72 13.4244 52.618 13.787 50.4522 14.1127Z" fill="white"/>
<path d="M18.1562 28.9205C18.3006 28.0441 18.5625 26.8085 18.6733 25.5627C18.7136 25.1061 18.5088 24.5218 18.2099 24.1659C17.5384 23.3668 16.7123 22.7019 15.9937 21.9363C14.7748 20.6369 14.3752 19.0957 14.9494 17.4033C15.5169 15.7278 16.7056 14.4586 18.4853 14.4283C21.4939 14.378 23.2736 13.0953 24.2675 10.2479C24.8451 8.59253 26.3763 7.81688 28.1828 7.80681C29.9826 7.80009 31.5843 8.5388 32.1283 10.1908C33.1054 13.1591 35.0496 14.1463 38.0046 14.4586C41.4632 14.8246 42.8399 19.0486 40.57 21.7248C39.8413 22.5844 38.9179 23.2828 38.2027 24.1525C37.887 24.5353 37.7024 25.1632 37.7326 25.6635C37.7897 26.6607 38.0583 27.6446 38.2027 28.6385C38.4545 30.3576 37.8937 31.8048 36.5372 32.8659C35.1369 33.9605 33.5453 34.1452 31.9167 33.4334C30.8825 32.9834 29.9255 32.3522 28.8879 31.9089C28.5018 31.7444 27.9242 31.7478 27.5347 31.9123C26.4602 32.3723 25.473 33.0372 24.3918 33.4837C21.3596 34.7496 18.1327 32.5469 18.1562 28.9205ZM32.9778 27.9703C31.2385 24.3002 32.3298 21.52 35.6138 19.4751C33.7501 19.0016 31.9134 18.9882 30.7146 18.1051C29.5192 17.2254 28.9685 15.476 28.0955 14.0489C27.6422 14.9589 27.1586 15.795 26.796 16.6814C26.242 18.0312 25.285 18.7263 23.8411 18.8573C22.8774 18.9446 21.9237 19.136 20.9399 19.2837C22.0614 20.6302 23.5154 21.7013 23.9552 23.0948C24.4052 24.5218 23.8612 26.2612 23.7571 27.7856C25.2245 27.198 26.7255 26.1201 28.2164 26.1302C29.7106 26.1369 31.1982 27.2316 32.9778 27.9703Z" fill="white"/>
<path d="M96.8781 7.78668C98.5939 7.82026 100.159 8.53547 100.696 10.1338C101.7 13.1289 103.654 14.153 106.673 14.4687C110.074 14.8212 111.421 19.0084 109.232 21.6644C108.94 22.0203 108.641 22.4031 108.261 22.6448C106.236 23.9242 106.038 25.6904 106.649 27.8259C107.23 29.8506 106.764 31.6773 104.991 32.97C103.261 34.2292 101.344 34.209 99.7121 32.9834C97.5295 31.3449 95.733 31.9257 93.6209 33.1513C90.4948 34.9645 86.828 32.923 86.7877 29.4779C86.7742 28.2792 87.016 27.0536 87.3014 25.8817C87.513 25.0121 87.2712 24.4681 86.6399 23.9208C85.9415 23.3198 85.3001 22.6516 84.6621 21.9867C83.4231 20.6973 83.0369 19.1528 83.5574 17.4604C84.0947 15.7077 85.327 14.4519 87.157 14.4015C90.1623 14.3209 91.9252 13.0215 92.9057 10.1673C93.4665 8.50525 95.0514 7.79004 96.8781 7.78668ZM97.0191 13.8844C96.9184 13.9448 96.8176 14.0053 96.7169 14.0624C96.277 14.9488 95.8002 15.8218 95.4107 16.7318C94.8634 18.0111 93.9433 18.7062 92.5531 18.8438C91.576 18.9412 90.6089 19.1259 89.1046 19.3509C92.7882 21.5133 93.6075 24.3775 92.1804 28.1147C95.2663 25.5325 98.2346 25.5124 101.216 28.1348C101.096 26.1974 100.552 24.4446 101.018 23.0243C101.478 21.6241 102.963 20.5597 104.242 19.0621C100.152 19.5154 97.8552 17.7056 97.0191 13.8844Z" fill="white"/>
<path d="M106.746 93.7323C105.111 93.7323 103.472 93.7525 101.837 93.7256C100.017 93.6987 99.0129 92.725 99.0028 90.9252C98.9793 87.5674 98.976 84.2097 99.0062 80.8519C99.0196 79.2032 100.027 78.1523 101.666 78.1321C105.064 78.0918 108.465 78.0952 111.863 78.1287C113.566 78.1455 114.587 79.2032 114.597 80.9191C114.62 84.2332 114.627 87.5507 114.593 90.8648C114.573 92.7183 113.532 93.6853 111.659 93.729C111.618 93.729 111.575 93.729 111.534 93.729C109.936 93.7323 108.341 93.7323 106.746 93.7323ZM104.241 88.4237C106.001 88.4237 107.643 88.4237 109.271 88.4237C109.271 86.681 109.271 85.0357 109.271 83.4072C107.549 83.4072 105.93 83.4072 104.241 83.4072C104.241 85.086 104.241 86.6978 104.241 88.4237Z" fill="white"/>
<path d="M26.0105 85.9625C26.0105 87.5978 26.0273 89.2363 26.0071 90.8716C25.9836 92.6881 25.0098 93.7089 23.2234 93.7257C19.8656 93.7526 16.5111 93.7559 13.1532 93.7223C11.5112 93.7055 10.4434 92.6949 10.4199 91.0596C10.3729 87.6213 10.3695 84.1795 10.4232 80.7378C10.4501 79.1731 11.5213 78.1557 13.0928 78.1355C16.5346 78.0986 19.973 78.0919 23.4148 78.1389C24.9762 78.159 25.9668 79.2234 26.0004 80.8016C26.034 82.5208 26.0071 84.2433 26.0105 85.9625ZM20.7453 88.4473C20.7453 86.7281 20.7453 85.0861 20.7453 83.4341C19.006 83.4341 17.3606 83.4341 15.7388 83.4341C15.7388 85.1734 15.7388 86.8187 15.7388 88.4473C17.458 88.4473 19.0765 88.4473 20.7453 88.4473Z" fill="white"/>
<path d="M26.0099 106.764C26.0099 108.443 26.03 110.122 26.0032 111.801C25.9763 113.52 24.9858 114.561 23.2665 114.581C19.9087 114.621 16.5541 114.621 13.1963 114.581C11.4871 114.561 10.4361 113.52 10.416 111.821C10.3757 108.463 10.3757 105.105 10.416 101.751C10.4361 100.021 11.4636 99.0108 13.1795 98.994C16.5374 98.9638 19.8919 98.9638 23.2497 98.9906C25.0025 99.0041 25.9528 99.9912 26.0099 101.727C26.0133 101.811 26.0133 101.895 26.0133 101.979C26.0099 103.577 26.0099 105.169 26.0099 106.764ZM15.6979 104.225C15.6979 105.998 15.6979 107.617 15.6979 109.296C17.4104 109.296 19.0591 109.296 20.738 109.296C20.738 107.57 20.738 105.921 20.738 104.225C19.0188 104.225 17.4037 104.225 15.6979 104.225Z" fill="white"/>
<path d="M98.9934 106.818C98.9934 105.182 98.9799 103.544 98.9967 101.909C99.0169 99.9879 99.947 99.0074 101.834 98.994C105.148 98.9671 108.466 98.9671 111.78 98.9973C113.583 99.0141 114.577 100.008 114.594 101.825C114.624 105.139 114.628 108.456 114.591 111.77C114.571 113.543 113.519 114.571 111.733 114.587C108.419 114.618 105.101 114.621 101.787 114.587C100.001 114.567 99.0202 113.53 98.9967 111.73C98.9799 110.088 98.9967 108.453 98.9934 106.818ZM109.315 104.269C107.549 104.269 105.904 104.269 104.238 104.269C104.238 105.998 104.238 107.62 104.238 109.292C105.961 109.292 107.61 109.292 109.315 109.292C109.315 107.6 109.315 105.978 109.315 104.269Z" fill="white"/>
<path d="M57.2621 54.6847C57.2621 56.3636 57.289 58.0425 57.2554 59.7181C57.2218 61.4473 56.2346 62.458 54.502 62.4748C51.1441 62.5084 47.7896 62.5084 44.4317 62.4748C42.7797 62.458 41.7119 61.4641 41.6816 59.8188C41.6212 56.3804 41.6212 52.9387 41.685 49.497C41.7152 47.855 42.7931 46.8947 44.4586 46.8813C47.8165 46.8578 51.171 46.8544 54.5288 46.8813C56.2581 46.8947 57.2252 47.892 57.2588 49.6481C57.289 51.3303 57.2621 53.0092 57.2621 54.6847ZM46.9636 52.1631C46.9636 53.8722 46.9636 55.5175 46.9636 57.1628C48.6962 57.1628 50.3449 57.1628 52.0339 57.1628C52.0339 55.4604 52.0339 53.8487 52.0339 52.1631C50.3114 52.1631 48.6626 52.1631 46.9636 52.1631Z" fill="white"/>
<path d="M67.745 54.6176C67.745 52.9387 67.7182 51.2598 67.7518 49.5843C67.7887 47.9088 68.7591 46.9048 70.4213 46.888C73.8194 46.8544 77.2176 46.8578 80.6157 46.888C82.2141 46.9014 83.2852 47.8551 83.3155 49.4399C83.3826 52.9219 83.3826 56.404 83.3155 59.886C83.2852 61.4675 82.2141 62.4547 80.6325 62.4748C77.2344 62.5151 73.8362 62.5151 70.4381 62.4748C68.7793 62.4547 67.7887 61.4306 67.7518 59.7819C67.7148 58.0593 67.745 56.3402 67.745 54.6176ZM78.057 57.2065C78.057 55.447 78.057 53.8353 78.057 52.1664C76.3378 52.1664 74.6891 52.1664 73.0001 52.1664C73.0001 53.8856 73.0001 55.5276 73.0001 57.2065C74.7227 57.2065 76.3445 57.2065 78.057 57.2065Z" fill="white"/>
<path d="M49.5284 67.7431C51.2073 67.7431 52.8863 67.7196 54.5618 67.7499C56.2676 67.7801 57.2314 68.7035 57.2481 70.4025C57.2851 73.8006 57.2817 77.1987 57.2515 80.5967C57.2381 82.2555 56.2576 83.2897 54.5921 83.3165C51.1939 83.3703 47.7957 83.3669 44.3976 83.3199C42.7388 83.2964 41.7046 82.2857 41.6777 80.6337C41.6206 77.2356 41.624 73.8375 41.6744 70.4394C41.7012 68.7135 42.7489 67.7902 44.4916 67.7431C44.5756 67.7398 44.6595 67.7431 44.7434 67.7431C46.3384 67.7398 47.9334 67.7398 49.5284 67.7431ZM51.9964 78.0683C51.9964 76.2685 51.9964 74.6199 51.9964 72.9947C50.2336 72.9947 48.5882 72.9947 46.9764 72.9947C46.9764 74.7575 46.9764 76.4129 46.9764 78.0683C48.6957 78.0683 50.3209 78.0683 51.9964 78.0683Z" fill="white"/>
<path d="M75.5788 67.7431C77.2141 67.7431 78.8527 67.7264 80.488 67.7465C82.2576 67.77 83.3019 68.6833 83.3287 70.4059C83.3858 73.8039 83.3858 77.202 83.3287 80.6001C83.3019 82.3125 82.2509 83.3031 80.5115 83.3232C77.1973 83.3635 73.8831 83.3602 70.5688 83.3232C68.7422 83.3031 67.765 82.3058 67.7516 80.4993C67.7247 77.1852 67.7247 73.8711 67.7516 70.557C67.765 68.7035 68.7052 67.7734 70.5453 67.7465C72.2209 67.723 73.8998 67.7431 75.5788 67.7431ZM72.9664 78.0549C74.6889 78.0549 76.3444 78.0549 78.0602 78.0549C78.0602 76.3458 78.0602 74.6904 78.0602 73.0081C76.3242 73.0081 74.6453 73.0081 72.9664 73.0081C72.9664 74.7508 72.9664 76.3693 72.9664 78.0549Z" fill="white"/>
</svg>
