<svg width="24" height="24" viewBox="0 0 24 24" fill="none" xmlns="http://www.w3.org/2000/svg">
<rect width="24" height="24" fill="#14213D"/>
<rect width="24" height="24" rx="12" fill="white"/>
<g clip-path="url(#clip0_13_759)">
<path fill-rule="evenodd" clip-rule="evenodd" d="M8.97699 4.7105C9.75899 4.6745 10.0083 4.6665 12.0003 4.6665C13.9923 4.6665 14.2417 4.67517 15.023 4.7105C15.8043 4.74584 16.3377 4.8705 16.8043 5.05117C17.293 5.23584 17.7363 5.5245 18.103 5.89784C18.4763 6.26384 18.7643 6.7065 18.9483 7.19584C19.1297 7.6625 19.2537 8.19584 19.2897 8.97584C19.3257 9.75917 19.3337 10.0085 19.3337 11.9998C19.3337 13.9918 19.325 14.2412 19.2897 15.0232C19.2543 15.8032 19.1297 16.3365 18.9483 16.8032C18.7643 17.2926 18.4758 17.736 18.103 18.1025C17.7363 18.4758 17.293 18.7638 16.8043 18.9478C16.3377 19.1292 15.8043 19.2532 15.0243 19.2892C14.2417 19.3252 13.9923 19.3332 12.0003 19.3332C10.0083 19.3332 9.75899 19.3245 8.97699 19.2892C8.19699 19.2538 7.66366 19.1292 7.19699 18.9478C6.70761 18.7638 6.26421 18.4753 5.89766 18.1025C5.52458 17.7363 5.23587 17.2931 5.05166 16.8038C4.87099 16.3372 4.74699 15.8038 4.71099 15.0238C4.67499 14.2405 4.66699 13.9912 4.66699 11.9998C4.66699 10.0078 4.67566 9.7585 4.71099 8.97717C4.74633 8.19584 4.87099 7.6625 5.05166 7.19584C5.23614 6.70656 5.52507 6.26338 5.89833 5.89717C6.26435 5.52417 6.70731 5.23547 7.19633 5.05117C7.66299 4.8705 8.19633 4.7465 8.97633 4.7105H8.97699ZM14.9637 6.0305C14.1903 5.99517 13.9583 5.98784 12.0003 5.98784C10.0423 5.98784 9.81032 5.99517 9.03699 6.0305C8.32166 6.06317 7.93366 6.1825 7.67499 6.28317C7.33299 6.4165 7.08833 6.5745 6.83166 6.83117C6.58836 7.06787 6.40111 7.35603 6.28366 7.6745C6.18299 7.93317 6.06366 8.32117 6.03099 9.0365C5.99566 9.80984 5.98833 10.0418 5.98833 11.9998C5.98833 13.9578 5.99566 14.1898 6.03099 14.9632C6.06366 15.6785 6.18299 16.0665 6.28366 16.3252C6.40099 16.6432 6.58833 16.9318 6.83166 17.1685C7.06833 17.4118 7.35699 17.5992 7.67499 17.7165C7.93366 17.8172 8.32166 17.9365 9.03699 17.9692C9.81032 18.0045 10.0417 18.0118 12.0003 18.0118C13.959 18.0118 14.1903 18.0045 14.9637 17.9692C15.679 17.9365 16.067 17.8172 16.3257 17.7165C16.6677 17.5832 16.9123 17.4252 17.169 17.1685C17.4123 16.9318 17.5997 16.6432 17.717 16.3252C17.8177 16.0665 17.937 15.6785 17.9697 14.9632C18.005 14.1898 18.0123 13.9578 18.0123 11.9998C18.0123 10.0418 18.005 9.80984 17.9697 9.0365C17.937 8.32117 17.8177 7.93317 17.717 7.6745C17.5837 7.3325 17.4257 7.08784 17.169 6.83117C16.9323 6.58788 16.6441 6.40064 16.3257 6.28317C16.067 6.1825 15.679 6.06317 14.9637 6.0305V6.0305ZM11.0637 14.2605C11.5868 14.4783 12.1692 14.5076 12.7116 14.3437C13.254 14.1797 13.7226 13.8324 14.0374 13.3613C14.3522 12.8902 14.4937 12.3244 14.4377 11.7606C14.3817 11.1967 14.1317 10.6698 13.7303 10.2698C13.4745 10.0142 13.1651 9.81838 12.8245 9.6966C12.484 9.57482 12.1206 9.53008 11.7607 9.56558C11.4007 9.60108 11.0531 9.71595 10.7429 9.90192C10.4326 10.0879 10.1675 10.3403 9.96653 10.6411C9.76557 10.9418 9.63378 11.2834 9.58067 11.6411C9.52755 11.9989 9.55443 12.364 9.65935 12.7102C9.76428 13.0563 9.94465 13.3749 10.1875 13.643C10.4303 13.9111 10.7295 14.122 11.0637 14.2605ZM9.33499 9.3345C9.68501 8.98449 10.1005 8.70684 10.5579 8.51741C11.0152 8.32798 11.5053 8.23049 12.0003 8.23049C12.4953 8.23049 12.9855 8.32798 13.4428 8.51741C13.9001 8.70684 14.3156 8.98449 14.6657 9.3345C15.0157 9.68452 15.2933 10.1 15.4827 10.5574C15.6722 11.0147 15.7697 11.5048 15.7697 11.9998C15.7697 12.4948 15.6722 12.985 15.4827 13.4423C15.2933 13.8996 15.0157 14.3152 14.6657 14.6652C13.9588 15.3721 13 15.7692 12.0003 15.7692C11.0006 15.7692 10.0419 15.3721 9.33499 14.6652C8.6281 13.9583 8.23097 12.9995 8.23097 11.9998C8.23097 11.0001 8.6281 10.0414 9.33499 9.3345V9.3345ZM16.6057 8.79184C16.6924 8.71002 16.7618 8.61162 16.8099 8.50249C16.8579 8.39335 16.8835 8.27568 16.8853 8.15646C16.887 8.03723 16.8648 7.91887 16.82 7.80838C16.7752 7.69789 16.7086 7.59751 16.6243 7.5132C16.54 7.42888 16.4396 7.36234 16.3291 7.31752C16.2186 7.27269 16.1003 7.25049 15.981 7.25223C15.8618 7.25396 15.7441 7.27961 15.635 7.32763C15.5259 7.37566 15.4275 7.4451 15.3457 7.53184C15.1865 7.70052 15.0994 7.92458 15.1028 8.15646C15.1062 8.38833 15.1998 8.60976 15.3638 8.77373C15.5277 8.93771 15.7492 9.03132 15.981 9.0347C16.2129 9.03808 16.437 8.95096 16.6057 8.79184V8.79184Z" fill="#14213D"/>
</g>
<defs>
<clipPath id="clip0_13_759">
<rect width="16" height="16" fill="white" transform="translate(4 4)"/>
</clipPath>
</defs>
</svg>
