<svg width="24" height="24" viewBox="0 0 24 24" fill="none" xmlns="http://www.w3.org/2000/svg">
<rect width="24" height="24" rx="12" fill="white"/>
<path d="M19.9953 6.54204C19.4072 6.80262 18.7755 6.97869 18.1114 7.05828C18.7966 6.64824 19.3093 6.00289 19.5537 5.24264C18.9099 5.62506 18.2053 5.89424 17.4705 6.03848C16.9763 5.51087 16.3218 5.16117 15.6086 5.04366C14.8953 4.92615 14.1632 5.04741 13.526 5.3886C12.8887 5.7298 12.3819 6.27185 12.0842 6.93059C11.7866 7.58934 11.7148 8.32792 11.8799 9.03167C10.5753 8.96617 9.29914 8.6271 8.13411 8.03646C6.96909 7.44581 5.94127 6.6168 5.11738 5.60323C4.83566 6.08918 4.67368 6.65261 4.67368 7.25266C4.67336 7.79284 4.80639 8.32474 5.06095 8.80118C5.31551 9.27762 5.68373 9.68386 6.13295 9.98386C5.61198 9.96728 5.1025 9.82651 4.64692 9.57327V9.61552C4.64686 10.3731 4.90893 11.1075 5.38865 11.6939C5.86837 12.2803 6.5362 12.6826 7.27882 12.8327C6.79553 12.9635 6.28883 12.9827 5.79701 12.889C6.00653 13.5409 6.41466 14.111 6.96426 14.5194C7.51386 14.9278 8.17742 15.1541 8.86204 15.1667C7.69986 16.079 6.26457 16.5739 4.78707 16.5717C4.52534 16.5718 4.26384 16.5565 4.00391 16.5259C5.50366 17.4902 7.24948 18.002 9.03248 18C15.0682 18 18.3677 13.001 18.3677 8.66545C18.3677 8.52459 18.3642 8.38232 18.3579 8.24147C18.9997 7.77733 19.5537 7.20258 19.9939 6.54415L19.9953 6.54204Z" fill="#14213D"/>
</svg>
