<svg width="22" height="17" viewBox="0 0 22 17" fill="none" xmlns="http://www.w3.org/2000/svg">
<path d="M21.4594 2.01238C20.6898 2.35373 19.8626 2.58442 18.9946 2.68815C19.8805 2.15701 20.5611 1.31598 20.8815 0.31378C20.0522 0.80564 19.1338 1.16278 18.1562 1.3552C17.3734 0.52112 16.2581 0 15.0237 0C12.6536 0 10.7319 1.92147 10.7319 4.29155C10.7319 4.6279 10.7699 4.95546 10.8431 5.2696C7.27634 5.0906 4.114 3.38203 1.99734 0.78551C1.6279 1.41935 1.41626 2.15656 1.41626 2.94309C1.41626 4.43204 2.17389 5.74563 3.32548 6.5153C2.62204 6.4929 1.96021 6.2999 1.38164 5.97846C1.38123 5.99639 1.38123 6.0143 1.38123 6.0324C1.38123 8.1118 2.86058 9.8463 4.82384 10.2406C4.46374 10.3387 4.08459 10.3912 3.69319 10.3912C3.41665 10.3912 3.1478 10.3642 2.88571 10.3142C3.43186 12.0191 5.01678 13.26 6.89479 13.2945C5.42601 14.4457 3.57552 15.1318 1.56478 15.1318C1.21837 15.1318 0.876756 15.1114 0.541016 15.0717C2.44028 16.2894 4.69616 17 7.11975 17C15.0136 17 19.3304 10.4605 19.3304 4.78918C19.3304 4.60314 19.3262 4.41805 19.3179 4.23395C20.1565 3.62886 20.8841 2.87302 21.4594 2.01238Z" fill="white"/>
</svg>
