<svg width="80" height="63" viewBox="0 0 80 63" fill="none" xmlns="http://www.w3.org/2000/svg">
<path d="M7.3 62.3L3.1 54.9C6.43333 53.3667 9.63333 51.1667 12.7 48.3C15.7667 45.4333 18.2667 42.4333 20.2 39.3C22.1333 36.2333 23.1 33.5333 23.1 31.2C23.1 30.1333 22.9333 29.1333 22.6 28.2C22.3333 27.2 21.9667 26.4 21.5 25.8H28.7C27.9 27.6667 26.5 29.3333 24.5 30.8C22.5 32.2667 19.7333 33 16.2 33C12.1333 33 8.46667 31.6333 5.2 28.9C2 26.1 0.400001 22.1333 0.400001 17C0.400001 12.0667 2.06667 8.03333 5.4 4.9C8.73333 1.76667 12.9667 0.199999 18.1 0.199999C23.8333 0.199999 28.4333 2.2 31.9 6.2C35.3667 10.1333 37.1 15.1 37.1 21.1C37.1 27.3 35.6333 33.1 32.7 38.5C29.8333 43.9 26.1333 48.6333 21.6 52.7C17.0667 56.8333 12.3 60.0333 7.3 62.3ZM50.0422 62.3L45.8422 54.9C49.1755 53.3667 52.3755 51.1667 55.4422 48.3C58.5089 45.4333 61.0089 42.4333 62.9422 39.3C64.8755 36.2333 65.8422 33.5333 65.8422 31.2C65.8422 30.1333 65.6755 29.1333 65.3422 28.2C65.0755 27.2 64.7089 26.4 64.2422 25.8H71.4422C70.6422 27.6667 69.2422 29.3333 67.2422 30.8C65.2422 32.2667 62.4755 33 58.9422 33C54.8755 33 51.2089 31.6333 47.9422 28.9C44.7422 26.1 43.1422 22.1333 43.1422 17C43.1422 12.0667 44.8089 8.03333 48.1422 4.9C51.4755 1.76667 55.7089 0.199999 60.8422 0.199999C66.5755 0.199999 71.1755 2.2 74.6422 6.2C78.1089 10.1333 79.8422 15.1 79.8422 21.1C79.8422 27.3 78.3755 33.1 75.4422 38.5C72.5755 43.9 68.8755 48.6333 64.3422 52.7C59.8089 56.8333 55.0422 60.0333 50.0422 62.3Z" fill="#FFC800" fill-opacity="0.3"/>
</svg>
