<svg width="80" height="63" viewBox="0 0 80 63" fill="none" xmlns="http://www.w3.org/2000/svg">
<path d="M72.7 0.699997L76.9 8.1C73.5667 9.63333 70.3667 11.8333 67.3 14.7C64.2333 17.5667 61.7333 20.5667 59.8 23.7C57.8667 26.7667 56.9 29.4667 56.9 31.8C56.9 32.8667 57.0667 33.8667 57.4 34.8C57.6667 35.8 58.0333 36.6 58.5 37.2L51.3 37.2C52.1 35.3333 53.5 33.6667 55.5 32.2C57.5 30.7333 60.2667 30 63.8 30C67.8667 30 71.5333 31.3667 74.8 34.1C78 36.9 79.6 40.8667 79.6 46C79.6 50.9333 77.9333 54.9667 74.6 58.1C71.2667 61.2333 67.0333 62.8 61.9 62.8C56.1667 62.8 51.5667 60.8 48.1 56.8C44.6333 52.8667 42.9 47.9 42.9 41.9C42.9 35.7 44.3667 29.9 47.3 24.5C50.1667 19.1 53.8667 14.3667 58.4 10.3C62.9333 6.16666 67.7 2.96666 72.7 0.699997ZM29.9578 0.699993L34.1578 8.09999C30.8245 9.63333 27.6245 11.8333 24.5578 14.7C21.4912 17.5667 18.9912 20.5667 17.0578 23.7C15.1245 26.7667 14.1578 29.4667 14.1578 31.8C14.1578 32.8667 14.3245 33.8667 14.6578 34.8C14.9245 35.8 15.2912 36.6 15.7578 37.2L8.55782 37.2C9.35782 35.3333 10.7578 33.6667 12.7578 32.2C14.7578 30.7333 17.5245 30 21.0578 30C25.1245 30 28.7912 31.3667 32.0578 34.1C35.2578 36.9 36.8578 40.8667 36.8578 46C36.8578 50.9333 35.1912 54.9667 31.8578 58.1C28.5245 61.2333 24.2912 62.8 19.1578 62.8C13.4245 62.8 8.82449 60.8 5.35782 56.8C1.89115 52.8667 0.157821 47.9 0.157822 41.9C0.157822 35.7 1.62449 29.9 4.55783 24.5C7.42449 19.1 11.1245 14.3667 15.6578 10.3C20.1912 6.16666 24.9578 2.96666 29.9578 0.699993Z" fill="#FFC800" fill-opacity="0.3"/>
</svg>
